<svg width="24" height="24" viewBox="0 0 24 24" fill="none" xmlns="http://www.w3.org/2000/svg">
<g clip-path="url(#clip0_5822_974)">
<circle cx="12" cy="12" r="12" fill="url(#paint0_linear_5822_974)"/>
<mask id="mask0_5822_974" style="mask-type:alpha" maskUnits="userSpaceOnUse" x="0" y="0" width="24" height="24">
<circle cx="12" cy="12" r="12" fill="url(#paint1_linear_5822_974)"/>
</mask>
<g mask="url(#mask0_5822_974)">
<path d="M9.4913 5.57645C10.419 1.87797 15.1916 0.713225 16.9869 0.875961C16.4009 0.619889 15.0332 -0.0698242 14.0868 -0.0698242C12.9038 -0.0698242 9.37696 1.25482 7.71121 3.26352C6.79708 4.36585 4.94196 7.18888 6.68956 10.3345C8.43715 13.4802 13.7393 14.7656 18.3368 14.3354C22.0148 13.9912 23.7573 14.8581 23.9455 15.3421C24.6338 13.4923 24.1828 10.5442 23.9455 9.47269C22.9977 10.8216 21.0381 11.5974 20.3566 11.8168C15.2584 12.9962 8.33169 10.1995 9.4913 5.57645Z" fill="black"/>
<path d="M1.40679 10.7594C0.491139 7.31653 1.64771 5.78796 2.90847 4.27655C-0.956895 5.98705 -0.624342 10.914 -0.424504 12.4442C0.328305 15.6974 1.8868 16.7941 2.90847 17.6813C3.93014 18.5686 8.65421 21.151 12.7947 21.0434C16.107 20.9574 16.9668 22.5904 16.7696 23.0922L18.7157 22.3934L20.1021 21.0434C21.0969 19.0539 20.3948 18.0897 19.4269 17.9015C17.0993 17.4489 14.9619 18.677 9.10286 17.9015C3.4232 17.1498 2.34986 14.3053 1.40679 10.7594Z" fill="black"/>
<path d="M15.3675 5.63659C14.961 3.46437 18.4279 2.477 20.1613 2.60915C20.9703 3.29289 22.9376 5.23769 22.7389 6.14583C22.4906 7.28101 15.9351 8.66964 15.3675 5.63659Z" fill="black"/>
</g>
</g>
<defs>
<linearGradient id="paint0_linear_5822_974" x1="4.26043" y1="20.8595" x2="5.62674" y2="2.8698" gradientUnits="userSpaceOnUse">
<stop stop-color="#CBE727"/>
<stop offset="1" stop-color="#2092B7"/>
</linearGradient>
<linearGradient id="paint1_linear_5822_974" x1="4.26043" y1="20.8595" x2="5.62674" y2="2.8698" gradientUnits="userSpaceOnUse">
<stop stop-color="#CBE727"/>
<stop offset="1" stop-color="#2092B7"/>
</linearGradient>
<clipPath id="clip0_5822_974">
<rect width="24" height="24" fill="white"/>
</clipPath>
</defs>
</svg>
