<svg width="24" height="24" viewBox="0 0 24 24" fill="none" xmlns="http://www.w3.org/2000/svg">
<g clip-path="url(#clip0_5823_998)">
<circle cx="12" cy="12" r="12" fill="#F7F7F7"/>
<path d="M0.131195 11.9988C0.786858 11.9988 3.32209 11.433 4.63342 10.6899C5.94474 9.94684 5.94474 9.94684 8.65482 8.02356C12.086 5.58856 14.5121 6.40385 18.4898 6.40385" fill="black"/>
<path d="M0.131195 11.9988C0.786858 11.9988 3.32209 11.433 4.63342 10.6899C5.94474 9.94684 5.94474 9.94684 8.65482 8.02356C12.086 5.58856 14.5121 6.40385 18.4898 6.40385" stroke="black" stroke-width="3.93398"/>
<path d="M22.3363 6.42809L15.6158 10.3082V2.54797L22.3363 6.42809Z" fill="black" stroke="black" stroke-width="0.0437109"/>
<path d="M0 12.0013C0.655664 12.0013 3.1909 12.5671 4.50222 13.3102C5.81355 14.0533 5.81355 14.0533 8.52363 15.9766C11.9548 18.4116 14.3809 17.5963 18.3586 17.5963" fill="black"/>
<path d="M0 12.0013C0.655664 12.0013 3.1909 12.5671 4.50222 13.3102C5.81355 14.0533 5.81355 14.0533 8.52363 15.9766C11.9548 18.4116 14.3809 17.5963 18.3586 17.5963" stroke="black" stroke-width="3.93398"/>
<path d="M22.2051 17.572L15.4846 13.6919V21.4521L22.2051 17.572Z" fill="black" stroke="black" stroke-width="0.0437109"/>
</g>
<defs>
<clipPath id="clip0_5823_998">
<rect width="24" height="24" fill="white"/>
</clipPath>
</defs>
</svg>
