<svg width="20" height="20" viewBox="0 0 20 20" fill="none" xmlns="http://www.w3.org/2000/svg">
<g id="&#208;&#151;&#208;&#176;&#208;&#179;&#209;&#128;&#209;&#131;&#208;&#183;&#208;&#184;&#209;&#130;&#209;&#140; &#209;&#131;&#208;&#180;&#208;&#176;&#208;&#187;&#208;&#181;&#208;&#189;&#208;&#189;&#209;&#139;&#208;&#181;" clip-path="url(#clip0_4557_37853)">
<path id="Vector" d="M15.9759 10L11.6902 10L11.6902 15.2137H8.83301L13.833 20L18.833 15.2137L15.9759 15.2137L15.9759 10Z" fill="#6B7889"/>
<path id="Subtract" fill-rule="evenodd" clip-rule="evenodd" d="M4.5 16.5C3.58333 16.5 2.83333 15.75 2.83333 14.8333V4.83333H12.8333V8.02245C12.6685 8.00759 12.5017 8 12.333 8C9.29544 8 6.83301 10.4624 6.83301 13.5C6.83301 14.6068 7.15993 15.6372 7.72247 16.5H4.5ZM10.75 2.33333H13.6667V4H2V2.33333H4.91667L5.75 1.5H9.91667L10.75 2.33333Z" fill="#6B7889"/>
</g>
<defs>
<clipPath id="clip0_4557_37853">
<rect width="20" height="20" fill="white"/>
</clipPath>
</defs>
</svg>
