<?xml version="1.0" encoding="UTF-8" standalone="no"?>
<svg
   width="24"
   height="24"
   fill="currentColor"
   class="bi bi-telegram"
   viewBox="0 0 24 24"
   version="1.1"
   id="svg4"
   sodipodi:docname="telegram_icon_184639.svg"
   inkscape:version="1.1 (c68e22c387, 2021-05-23)"
   xmlns:inkscape="http://www.inkscape.org/namespaces/inkscape"
   xmlns:sodipodi="http://sodipodi.sourceforge.net/DTD/sodipodi-0.dtd"
   xmlns="http://www.w3.org/2000/svg"
   xmlns:svg="http://www.w3.org/2000/svg">
  <defs
     id="defs8" />
  <sodipodi:namedview
     id="namedview6"
     pagecolor="#ffffff"
     bordercolor="#666666"
     borderopacity="1.0"
     inkscape:pageshadow="2"
     inkscape:pageopacity="0.0"
     inkscape:pagecheckerboard="0"
     showgrid="false"
     fit-margin-top="0"
     fit-margin-left="0"
     fit-margin-right="0"
     fit-margin-bottom="0"
     inkscape:zoom="53.875"
     inkscape:cx="19.183295"
     inkscape:cy="14.134571"
     inkscape:window-width="1830"
     inkscape:window-height="1051"
     inkscape:window-x="81"
     inkscape:window-y="-9"
     inkscape:window-maximized="1"
     inkscape:current-layer="svg4" />
  <path
     d="M 24,12 A 12,12 0 1 1 0,12 12,12 0 0 1 24,12 Z M 12.4305,8.859 c -1.167,0.486 -3.501,1.491 -6.999,3.015 -0.567,0.225 -0.8655,0.447 -0.8925,0.663 -0.045,0.3645 0.4125,0.5085 1.035,0.705 l 0.2625,0.0825 c 0.612,0.1995 1.437,0.432 1.8645,0.441 0.39,0.009 0.8235,-0.15 1.302,-0.48 3.2685,-2.2065 4.956,-3.321 5.061,-3.345 0.075,-0.018 0.18,-0.039 0.249,0.024 0.0705,0.0615 0.063,0.18 0.0555,0.2115 -0.045,0.1935 -1.8405,1.8615 -2.769,2.7255 -0.2895,0.27 -0.495,0.4605 -0.537,0.504 a 12.231,12.231 0 0 1 -0.282,0.279 c -0.57,0.549 -0.996,0.96 0.0225,1.632 0.4905,0.324 0.8835,0.5895 1.275,0.8565 0.426,0.291 0.852,0.5805 1.404,0.9435 0.1395,0.09 0.2745,0.1875 0.405,0.2805 0.4965,0.354 0.945,0.672 1.4955,0.621 0.321,-0.03 0.6525,-0.33 0.8205,-1.23 0.3975,-2.1255 1.179,-6.729 1.359,-8.6265 A 2.139,2.139 0 0 0 17.5425,7.689 0.5055,0.5055 0 0 0 17.3715,7.3635 0.789,0.789 0 0 0 16.9065,7.224 c -0.45,0.0075 -1.1445,0.249 -4.476,1.635 z"
     id="path2"
     style="fill:#00ccff;stroke-width:1.5" />
</svg>
