<svg width="16" height="16" viewBox="0 0 16 16" fill="none" xmlns="http://www.w3.org/2000/svg">
<g clip-path="url(#clip0_4052_21481)">
<path d="M12.5533 4.66659H10.82L6.99999 2.66659L2.66666 4.93325V11.3333C1.93333 11.3333 1.33333 10.7333 1.33333 9.99992V4.77992C1.33333 4.42659 1.54666 4.05325 1.86666 3.88659L6.99999 1.33325L12.0267 3.88659C12.3133 4.03992 12.5133 4.35325 12.5533 4.66659ZM13.3333 5.33325H4.66666C3.93333 5.33325 3.33333 5.93325 3.33333 6.66659V12.6666C3.33333 13.3999 3.93333 13.9999 4.66666 13.9999H13.3333C14.0667 13.9999 14.6667 13.3999 14.6667 12.6666V6.66659C14.6667 5.93325 14.0667 5.33325 13.3333 5.33325ZM13.3333 7.77992L8.99999 9.99992L4.66666 7.77992V6.66659L8.99999 8.88659L13.3333 6.66659V7.77992Z" fill="#757575"/>
</g>
<defs>
<clipPath id="clip0_4052_21481">
<rect width="16" height="16" fill="white"/>
</clipPath>
</defs>
</svg>
