<svg width="24" height="24" viewBox="0 0 24 24" fill="none" xmlns="http://www.w3.org/2000/svg">
<path d="M6.94225 20.4615L6.75 18.8385L9.4655 11.354C9.65767 11.5295 9.86275 11.674 10.0808 11.7875C10.2988 11.901 10.5295 11.9897 10.773 12.0537L8.1385 19.3152L6.94225 20.4615ZM17.0578 20.4615L15.8615 19.3152L13.227 12.0537C13.4705 11.9897 13.7013 11.901 13.9193 11.7875C14.1373 11.674 14.3423 11.5295 14.5345 11.354L17.25 18.8385L17.0578 20.4615ZM12 10.75C11.2372 10.75 10.5882 10.4823 10.053 9.947C9.51767 9.41183 9.25 8.76283 9.25 8C9.25 7.35 9.4455 6.7885 9.8365 6.3155C10.2275 5.84233 10.6987 5.53458 11.25 5.39225V3H12.75V5.39225C13.3013 5.53458 13.7725 5.84233 14.1635 6.3155C14.5545 6.7885 14.75 7.35 14.75 8C14.75 8.76283 14.4823 9.41183 13.947 9.947C13.4118 10.4823 12.7628 10.75 12 10.75ZM12 9.25C12.3475 9.25 12.6427 9.1285 12.8855 8.8855C13.1285 8.64267 13.25 8.3475 13.25 8C13.25 7.6525 13.1285 7.35733 12.8855 7.1145C12.6427 6.8715 12.3475 6.75 12 6.75C11.6525 6.75 11.3573 6.8715 11.1145 7.1145C10.8715 7.35733 10.75 7.6525 10.75 8C10.75 8.3475 10.8715 8.64267 11.1145 8.8855C11.3573 9.1285 11.6525 9.25 12 9.25Z" fill="#6B7889"/>
</svg>
