<svg width="25" height="25" viewBox="0 0 25 25" fill="none" xmlns="http://www.w3.org/2000/svg">
<path d="M19.2095 21.1086L12.2095 14.1086L9.85947 16.4586C9.99281 16.7086 10.0845 16.9753 10.1345 17.2586C10.1845 17.542 10.2095 17.8253 10.2095 18.1086C10.2095 19.2086 9.81781 20.1503 9.03447 20.9336C8.25114 21.717 7.30947 22.1086 6.20947 22.1086C5.10947 22.1086 4.16781 21.717 3.38447 20.9336C2.60114 20.1503 2.20947 19.2086 2.20947 18.1086C2.20947 17.0086 2.60114 16.067 3.38447 15.2836C4.16781 14.5003 5.10947 14.1086 6.20947 14.1086C6.49281 14.1086 6.77614 14.1336 7.05947 14.1836C7.34281 14.2336 7.60947 14.3253 7.85947 14.4586L10.2095 12.1086L7.85947 9.75864C7.60947 9.89198 7.34281 9.98364 7.05947 10.0336C6.77614 10.0836 6.49281 10.1086 6.20947 10.1086C5.10947 10.1086 4.16781 9.71698 3.38447 8.93364C2.60114 8.15031 2.20947 7.20864 2.20947 6.10864C2.20947 5.00864 2.60114 4.06698 3.38447 3.28364C4.16781 2.50031 5.10947 2.10864 6.20947 2.10864C7.30947 2.10864 8.25114 2.50031 9.03447 3.28364C9.81781 4.06698 10.2095 5.00864 10.2095 6.10864C10.2095 6.39198 10.1845 6.67531 10.1345 6.95864C10.0845 7.24198 9.99281 7.50864 9.85947 7.75864L22.2095 20.1086V21.1086H19.2095ZM15.2095 11.1086L13.2095 9.10864L19.2095 3.10864H22.2095V4.10864L15.2095 11.1086ZM6.20947 8.10864C6.75947 8.10864 7.23031 7.91281 7.62197 7.52114C8.01364 7.12948 8.20947 6.65864 8.20947 6.10864C8.20947 5.55864 8.01364 5.08781 7.62197 4.69614C7.23031 4.30448 6.75947 4.10864 6.20947 4.10864C5.65947 4.10864 5.18864 4.30448 4.79697 4.69614C4.40531 5.08781 4.20947 5.55864 4.20947 6.10864C4.20947 6.65864 4.40531 7.12948 4.79697 7.52114C5.18864 7.91281 5.65947 8.10864 6.20947 8.10864ZM12.2095 12.6086C12.3428 12.6086 12.4595 12.5586 12.5595 12.4586C12.6595 12.3586 12.7095 12.242 12.7095 12.1086C12.7095 11.9753 12.6595 11.8586 12.5595 11.7586C12.4595 11.6586 12.3428 11.6086 12.2095 11.6086C12.0761 11.6086 11.9595 11.6586 11.8595 11.7586C11.7595 11.8586 11.7095 11.9753 11.7095 12.1086C11.7095 12.242 11.7595 12.3586 11.8595 12.4586C11.9595 12.5586 12.0761 12.6086 12.2095 12.6086ZM6.20947 20.1086C6.75947 20.1086 7.23031 19.9128 7.62197 19.5211C8.01364 19.1295 8.20947 18.6586 8.20947 18.1086C8.20947 17.5586 8.01364 17.0878 7.62197 16.6961C7.23031 16.3045 6.75947 16.1086 6.20947 16.1086C5.65947 16.1086 5.18864 16.3045 4.79697 16.6961C4.40531 17.0878 4.20947 17.5586 4.20947 18.1086C4.20947 18.6586 4.40531 19.1295 4.79697 19.5211C5.18864 19.9128 5.65947 20.1086 6.20947 20.1086Z" fill="#6B7889"/>
</svg>
