<svg width="25" height="25" viewBox="0 0 25 25" fill="none" xmlns="http://www.w3.org/2000/svg">
<path d="M11.7652 17.9193C10.3384 17.7975 9.13906 17.2161 8.16722 16.1751C7.19539 15.1341 6.70947 13.8886 6.70947 12.4386C6.70947 10.9108 7.24422 9.61218 8.31372 8.54285C9.38306 7.47335 10.6816 6.9386 12.2095 6.9386C13.6595 6.9386 14.905 7.42293 15.946 8.3916C16.987 9.3601 17.5684 10.5578 17.6902 11.9848L16.1 11.5136C15.8838 10.6136 15.4182 9.8761 14.7032 9.3011C13.9884 8.7261 13.1571 8.4386 12.2095 8.4386C11.1095 8.4386 10.1678 8.83027 9.38447 9.6136C8.60114 10.3969 8.20947 11.3386 8.20947 12.4386C8.20947 13.3886 8.49856 14.2219 9.07672 14.9386C9.65489 15.6553 10.3908 16.1219 11.2845 16.3386L11.7652 17.9193ZM12.9652 21.8981C12.8392 21.9251 12.7133 21.9386 12.5875 21.9386H12.2095C10.8953 21.9386 9.66031 21.6893 8.50447 21.1906C7.34864 20.6919 6.34322 20.0152 5.48822 19.1603C4.63322 18.3055 3.95639 17.3003 3.45772 16.1446C2.95889 14.9889 2.70947 13.7542 2.70947 12.4403C2.70947 11.1263 2.95881 9.89126 3.45747 8.7351C3.95614 7.57893 4.63289 6.57327 5.48772 5.7181C6.34256 4.86293 7.34781 4.18585 8.50347 3.68685C9.65914 3.18802 10.8939 2.9386 12.2077 2.9386C13.5217 2.9386 14.7568 3.18802 15.913 3.68685C17.0691 4.18552 18.0748 4.86235 18.93 5.71735C19.7851 6.57235 20.4622 7.57776 20.9612 8.7336C21.4601 9.88943 21.7095 11.1244 21.7095 12.4386V12.8116C21.7095 12.9359 21.696 13.0603 21.669 13.1848L20.2095 12.7386V12.4386C20.2095 10.2053 19.4345 8.3136 17.8845 6.7636C16.3345 5.2136 14.4428 4.4386 12.2095 4.4386C9.97614 4.4386 8.08447 5.2136 6.53447 6.7636C4.98447 8.3136 4.20947 10.2053 4.20947 12.4386C4.20947 14.6719 4.98447 16.5636 6.53447 18.1136C8.08447 19.6636 9.97614 20.4386 12.2095 20.4386H12.5095L12.9652 21.8981ZM20.3497 22.0828L15.8152 17.5386L14.7287 20.8231L12.2095 12.4386L20.594 14.9578L17.3095 16.0443L21.8537 20.5788L20.3497 22.0828Z" fill="#6B7889"/>
</svg>
