<svg width="18" height="19" viewBox="0 0 18 19" fill="none" xmlns="http://www.w3.org/2000/svg">
<g clip-path="url(#clip0_4965_6940)">
<path d="M7.2002 12.2L2.7002 7.70001H11.7002L7.2002 12.2Z" fill="#00A0F2"/>
<path d="M12.4199 7.205L5.71492 0.5L4.65742 1.5575L6.44242 3.3425L2.57992 7.205C2.13742 7.6475 2.13742 8.36 2.57992 8.795L6.70492 12.92C6.92242 13.1375 7.21492 13.25 7.49992 13.25C7.78492 13.25 8.07742 13.1375 8.29492 12.92L12.4199 8.795C12.8624 8.36 12.8624 7.6475 12.4199 7.205ZM3.90742 8L7.49992 4.4075L11.0924 8L7.49992 11.75L3.90742 8Z" fill="#6B7889"/>
<path d="M14.25 9.125C14.25 9.125 12.75 10.7525 12.75 11.75C12.75 12.575 13.425 13.25 14.25 13.25C15.075 13.25 15.75 12.575 15.75 11.75C15.75 10.7525 14.25 9.125 14.25 9.125ZM1.5 15.5H16.5V18.5H1.5V15.5Z" fill="#00A0F2"/>
</g>
<defs>
<clipPath id="clip0_4965_6940">
<rect width="18" height="18" fill="white" transform="translate(0 0.5)"/>
</clipPath>
</defs>
</svg>
