<svg width="25" height="25" viewBox="0 0 25 25" fill="none" xmlns="http://www.w3.org/2000/svg">
<path d="M12.2112 21.6886C10.8972 21.6886 9.66214 21.4393 8.50597 20.9406C7.34981 20.4419 6.34414 19.7652 5.48897 18.9103C4.63381 18.0555 3.95672 17.0503 3.45772 15.8946C2.95889 14.7389 2.70947 13.5042 2.70947 12.1903C2.70947 10.8763 2.95889 9.64126 3.45772 8.4851C3.95639 7.32893 4.63322 6.32327 5.48822 5.4681C6.34322 4.61293 7.34864 3.93585 8.50447 3.43685C9.66031 2.93802 10.8953 2.6886 12.2095 2.6886C12.9005 2.6886 13.5697 2.75785 14.2172 2.89635C14.8646 3.03485 15.4837 3.23743 16.0747 3.5041V5.1866C15.5042 4.8726 14.894 4.62776 14.244 4.4521C13.594 4.27643 12.9158 4.1886 12.2095 4.1886C9.99281 4.1886 8.10531 4.96777 6.54697 6.5261C4.98864 8.08443 4.20947 9.97193 4.20947 12.1886C4.20947 14.4053 4.98864 16.2928 6.54697 17.8511C8.10531 19.4094 9.99281 20.1886 12.2095 20.1886C14.4261 20.1886 16.3136 19.4094 17.872 17.8511C19.4303 16.2928 20.2095 14.4053 20.2095 12.1886C20.2095 11.6809 20.1617 11.1883 20.0662 10.7106C19.9707 10.2331 19.8377 9.77068 19.6672 9.32335H21.2787C21.4222 9.78102 21.5299 10.2453 21.6017 10.7161C21.6736 11.1869 21.7095 11.6778 21.7095 12.1886C21.7095 13.5028 21.4601 14.7378 20.9615 15.8936C20.4628 17.0494 19.7861 18.0548 18.9312 18.9098C18.0764 19.7648 17.0711 20.4417 15.9155 20.9403C14.7598 21.4392 13.5251 21.6886 12.2112 21.6886ZM20.4595 6.9386V4.9386H18.4595V3.4386H20.4595V1.4386H21.9595V3.4386H23.9595V4.9386H21.9595V6.9386H20.4595ZM15.6155 10.9963C15.9795 10.9963 16.2881 10.8689 16.5412 10.6141C16.7944 10.3594 16.921 10.0502 16.921 9.68635C16.921 9.32251 16.7936 9.01402 16.539 8.76085C16.2843 8.50752 15.975 8.38085 15.611 8.38085C15.2471 8.38085 14.9386 8.50827 14.6855 8.7631C14.4323 9.01777 14.3057 9.32702 14.3057 9.69085C14.3057 10.0547 14.4331 10.3632 14.6877 10.6163C14.9424 10.8697 15.2516 10.9963 15.6155 10.9963ZM8.80797 10.9963C9.17181 10.9963 9.48031 10.8689 9.73347 10.6141C9.98664 10.3594 10.1132 10.0502 10.1132 9.68635C10.1132 9.32251 9.98589 9.01402 9.73122 8.76085C9.47656 8.50752 9.16731 8.38085 8.80347 8.38085C8.43947 8.38085 8.13089 8.50827 7.87772 8.7631C7.62456 9.01777 7.49797 9.32702 7.49797 9.69085C7.49797 10.0547 7.62531 10.3632 7.87997 10.6163C8.13464 10.8697 8.44397 10.9963 8.80797 10.9963ZM12.2095 17.3808C13.2625 17.3808 14.2186 17.0888 15.078 16.5048C15.9375 15.9208 16.5723 15.1488 16.9825 14.1886H7.43647C7.84664 15.1488 8.48147 15.9208 9.34097 16.5048C10.2003 17.0888 11.1565 17.3808 12.2095 17.3808Z" fill="#6B7889"/>
</svg>
