<?xml version="1.0" encoding="UTF-8" standalone="no"?>
<!-- Generator: Adobe Illustrator 19.1.0, SVG Export Plug-In . SVG Version: 6.00 Build 0)  -->

<svg
   version="1.1"
   id="Capa_1"
   x="0px"
   y="0px"
   viewBox="0 0 16 16"
   xml:space="preserve"
   sodipodi:docname="clipboard_89387.svg"
   width="16"
   height="16"
   inkscape:version="1.1 (c68e22c387, 2021-05-23)"
   xmlns:inkscape="http://www.inkscape.org/namespaces/inkscape"
   xmlns:sodipodi="http://sodipodi.sourceforge.net/DTD/sodipodi-0.dtd"
   xmlns="http://www.w3.org/2000/svg"
   xmlns:svg="http://www.w3.org/2000/svg">
<g
   id="g6"
   transform="matrix(0.23880597,0,0,0.23880597,0.08226866,0)"
   style="fill:#585858;fill-opacity:1">
	<g
   id="g4"
   style="fill:#585858;fill-opacity:1">
		<path
   d="M 61.559,16.528 44.432,0.713 C 44.064,0.377 43.583,0 43.083,0 H 25.446 C 20.039,0 16.312,2.81 16.312,6.877 V 12 H 12.954 C 8.008,12 4.312,15.124 4.312,19.369 V 59.37 c 0,4.492 4.077,7.63 8.642,7.63 h 29.231 c 4.677,0 8.127,-3.288 8.127,-7.63 V 55 h 4.365 c 4.41,0 7.635,-3.513 7.635,-8.122 V 18.555 c 0,-0.029 0.242,-0.057 0.241,-0.085 0.001,-0.03 0.134,-0.059 0.134,-0.089 0.001,-0.84 -0.394,-1.557 -1.128,-1.853 z M 44.312,6.665 55.462,16 h -11.15 z m 2,52.705 c 0,2.363 -1.938,3.63 -4.127,3.63 H 12.955 C 10.632,63 8.313,61.619 8.313,59.37 V 19.369 c 0,-2.6 3.095,-3.369 4.642,-3.369 h 15.358 v 15.381 c 0,1.104 1.396,1.619 2.5,1.619 h 15.5 V 59.37 Z M 44.028,29 H 32.312 V 19.122 Z M 54.677,51 H 50.312 V 31.047 c 0,-0.562 0.014,-1.097 -0.4,-1.476 L 32.482,13.512 c -0.324,-0.667 -0.94,-1.132 -1.732,-1.132 -0.036,0 -0.039,-0.182 -0.075,-0.18 -0.038,-0.002 -0.044,-0.201 -0.083,-0.201 H 20.312 V 6.876 c 0,-2.063 3.02,-2.877 5.134,-2.877 H 40.312 V 18.38 c 0,1.104 1.396,1.619 2.5,1.619 h 15.5 v 26.878 c 0,2.399 -1.431,4.123 -3.635,4.123 z"
   id="path2"
   style="fill:#585858;fill-opacity:1" />
	</g>
</g>

</svg>
