<svg width="24" height="24" viewBox="0 0 24 24" fill="none" xmlns="http://www.w3.org/2000/svg">
<path fill-rule="evenodd" clip-rule="evenodd" d="M12.6285 4.17825C12.4618 4.00009 12.2357 3.9 12 3.9C11.7643 3.9 11.5382 4.00009 11.3715 4.17825C11.2048 4.35641 11.1111 4.59804 11.1111 4.85C11.1111 5.10196 11.2048 5.34359 11.3715 5.52175C11.5382 5.69991 11.7643 5.8 12 5.8C12.2357 5.8 12.4618 5.69991 12.6285 5.52175C12.7952 5.34359 12.8889 5.10196 12.8889 4.85C12.8889 4.59804 12.7952 4.35641 12.6285 4.17825ZM14.5067 3.9H18.2222C18.6937 3.9 19.1459 4.10018 19.4793 4.4565C19.8127 4.81282 20 5.29609 20 5.8V19.1C20 19.6039 19.8127 20.0872 19.4793 20.4435C19.1459 20.7998 18.6937 21 18.2222 21H5.77778C5.30628 21 4.8541 20.7998 4.5207 20.4435C4.1873 20.0872 4 19.6039 4 19.1V5.8C4 5.29609 4.1873 4.81282 4.5207 4.4565C4.8541 4.10018 5.30628 3.9 5.77778 3.9H9.49333C9.86667 2.798 10.8444 2 12 2C13.1556 2 14.1333 2.798 14.5067 3.9ZM7 10.5882V9H17V10.5882H7ZM7 14.2941V12.7059H17V14.2941H7ZM12.8333 16.4118H7V18H12.8333V16.4118Z" fill="#6B7889"/>
</svg>
