<svg width="25" height="25" viewBox="0 0 25 25" fill="none" xmlns="http://www.w3.org/2000/svg">
<path fill-rule="evenodd" clip-rule="evenodd" d="M19.2911 2.98291L19.2911 3.73291C19.2911 15.1238 11.9129 20.8645 8.11645 22.3248L7.41645 22.594L6.87796 21.194L7.57797 20.9247C10.9108 19.6428 17.7911 14.3878 17.7911 3.73291L17.7911 2.98291L19.2911 2.98291Z" fill="#6B7889"/>
<path fill-rule="evenodd" clip-rule="evenodd" d="M12.1534 7.05017L12.2712 7.79086C12.6653 10.2685 13.8431 15.5638 20.2683 20.9563L20.8427 21.4385L19.8784 22.5874L19.304 22.1053C12.5202 16.4118 11.2213 10.7389 10.7898 8.02649L10.672 7.2858L12.1534 7.05017Z" fill="#6B7889"/>
<path fill-rule="evenodd" clip-rule="evenodd" d="M20.2413 5.88757L9.01149 5.88814L9.01141 4.38814L20.2412 4.38757L20.2413 5.88757Z" fill="#6B7889"/>
<path fill-rule="evenodd" clip-rule="evenodd" d="M9.91143 7.26232L9.51116 7.89658C7.66593 10.8206 6.82134 13.9427 6.44076 16.3483C6.25088 17.5485 6.17768 18.5628 6.15187 19.274C6.13897 19.6294 6.13792 19.9085 6.13999 20.0965C6.14102 20.1905 6.14284 20.2617 6.14433 20.3082C6.14508 20.3314 6.14574 20.3485 6.14619 20.3592L6.14669 20.3704L6.14675 20.3718L6.18549 21.1208L4.68749 21.1983L4.64875 20.4493L5.39775 20.4105C4.64875 20.4493 4.64877 20.4496 4.64875 20.4493L4.6486 20.4463L4.64834 20.4407L4.64752 20.4223C4.64686 20.4067 4.64601 20.3846 4.6451 20.3563C4.64328 20.2996 4.64124 20.2179 4.64008 20.113C4.63777 19.9032 4.63903 19.6004 4.65286 19.2196C4.68048 18.4584 4.75839 17.3831 4.95919 16.1139C5.35995 13.5808 6.25493 10.2458 8.24264 7.09606L8.6429 6.46179L9.91143 7.26232Z" fill="#6B7889"/>
<path fill-rule="evenodd" clip-rule="evenodd" d="M3.88601 8.23645L5.54226 10.9969L4.25601 11.7687L2.59976 9.00818L3.88601 8.23645Z" fill="#6B7889"/>
<path fill-rule="evenodd" clip-rule="evenodd" d="M5.20419 4.10876L6.86043 6.86924L5.57419 7.64097L3.91794 4.8805L5.20419 4.10876Z" fill="#6B7889"/>
<path fill-rule="evenodd" clip-rule="evenodd" d="M2.50229 14.0605L3.24287 14.179C4.42983 14.3689 5.16046 15.0826 5.57632 15.71C5.78311 16.022 5.91826 16.3203 6.00228 16.541C6.04457 16.6521 6.07472 16.7457 6.09497 16.8144C6.10512 16.8488 6.11283 16.8771 6.11839 16.8985L6.12516 16.9254L6.1274 16.9347L6.12824 16.9383L6.1286 16.9399L6.12876 16.9406C6.12884 16.9409 6.12891 16.9412 5.39778 17.1084L6.12891 16.9412L6.29608 17.6724L4.83382 18.0067L4.66757 17.2796L4.66716 17.2778L4.66752 17.2793L4.66654 17.2756C4.66486 17.2691 4.66147 17.2564 4.65618 17.2385C4.64555 17.2024 4.62748 17.1457 4.60042 17.0746C4.54571 16.9309 4.45756 16.7372 4.32604 16.5388C4.06526 16.1453 3.6592 15.7647 3.00593 15.6602L2.26535 15.5417L2.50229 14.0605Z" fill="#6B7889"/>
</svg>
