<svg width="25" height="25" viewBox="0 0 25 25" fill="none" xmlns="http://www.w3.org/2000/svg">
<path d="M6.40172 14.4054H9.02872L14.1632 9.27066C14.2812 9.14632 14.3697 9.00916 14.4287 8.85916C14.4877 8.70916 14.5172 8.56174 14.5172 8.41691C14.5172 8.27207 14.4851 8.12974 14.421 7.98991C14.3568 7.85024 14.2709 7.71824 14.1632 7.59391L13.2537 6.64391C13.1357 6.52591 13.0027 6.43741 12.8547 6.37841C12.7066 6.31941 12.555 6.28991 12.4 6.28991C12.255 6.28991 12.1075 6.31941 11.9575 6.37841C11.8075 6.43741 11.6703 6.52591 11.546 6.64391L6.40172 11.7784V14.4054ZM7.59397 13.2132V12.2632L10.5807 9.27641L11.0615 9.74566L11.521 10.2362L8.54397 13.2132H7.59397ZM11.0615 9.74566L11.521 10.2362L10.5807 9.27641L11.0615 9.74566ZM11.7017 14.4054H18.0172V12.9054H13.2017L11.7017 14.4054ZM2.70947 21.6362V4.90541C2.70947 4.40024 2.88447 3.97266 3.23447 3.62266C3.58447 3.27266 4.01206 3.09766 4.51722 3.09766H19.9017C20.4069 3.09766 20.8345 3.27266 21.1845 3.62266C21.5345 3.97266 21.7095 4.40024 21.7095 4.90541V16.2899C21.7095 16.7951 21.5345 17.2227 21.1845 17.5727C20.8345 17.9227 20.4069 18.0977 19.9017 18.0977H6.24797L2.70947 21.6362ZM5.60947 16.5977H19.9017C19.9787 16.5977 20.0492 16.5656 20.1132 16.5014C20.1774 16.4374 20.2095 16.3669 20.2095 16.2899V4.90541C20.2095 4.82841 20.1774 4.75791 20.1132 4.69391C20.0492 4.62974 19.9787 4.59766 19.9017 4.59766H4.51722C4.44022 4.59766 4.36972 4.62974 4.30572 4.69391C4.24156 4.75791 4.20947 4.82841 4.20947 4.90541V17.9824L5.60947 16.5977Z" fill="#6B7889"/>
</svg>
