<svg width="24" height="24" viewBox="0 0 24 24" fill="none" xmlns="http://www.w3.org/2000/svg">
<path d="M7.49999 19.6922V9.29224C7.49999 8.79357 7.67916 8.37024 8.03749 8.02224C8.39582 7.67407 8.82432 7.49999 9.32299 7.49999H19.6922C20.1909 7.49999 20.6169 7.67657 20.9702 8.02974C21.3234 8.38307 21.5 8.80907 21.5 9.30774V16.7885L16.7885 21.5H9.30774C8.80907 21.5 8.38307 21.3234 8.02974 20.9702C7.67657 20.6169 7.49999 20.1909 7.49999 19.6922ZM2.52499 6.42299C2.43149 5.92432 2.52866 5.47499 2.81649 5.07499C3.10416 4.67499 3.49741 4.42824 3.99624 4.33474L14.2307 2.52499C14.7294 2.43149 15.1787 2.52865 15.5787 2.81649C15.9787 3.10415 16.2256 3.49741 16.3192 3.99624L16.55 5.30774H15.0192L14.825 4.21149C14.8122 4.14099 14.7737 4.08491 14.7095 4.04324C14.6455 4.00157 14.575 3.98716 14.498 3.99999L4.25974 5.81924C4.16991 5.83207 4.10257 5.87374 4.05774 5.94424C4.01291 6.01474 3.99682 6.09491 4.00949 6.18474L5.30774 13.5175V17.973C5.06024 17.8423 4.84866 17.6632 4.67299 17.4355C4.49749 17.208 4.38474 16.9487 4.33474 16.6577L2.52499 6.42299ZM8.99999 9.30774V19.6922C8.99999 19.7821 9.02882 19.8558 9.08649 19.9135C9.14416 19.9712 9.21791 20 9.30774 20H16V16H20V9.30774C20 9.21791 19.9712 9.14416 19.9135 9.08649C19.8558 9.02882 19.7821 8.99999 19.6922 8.99999H9.30774C9.21791 8.99999 9.14416 9.02882 9.08649 9.08649C9.02882 9.14416 8.99999 9.21791 8.99999 9.30774Z" fill="#6B7889"/>
</svg>
