<svg width="24" height="24" viewBox="0 0 24 24" fill="none" xmlns="http://www.w3.org/2000/svg">
<mask id="path-1-inside-1_4071_22100" fill="white">
<path fill-rule="evenodd" clip-rule="evenodd" d="M19.6491 3.34097C19.4152 3.11366 19.1183 3 18.7584 3H1.24157C0.917679 3 0.62978 3.11366 0.377868 3.34097C0.125956 3.56828 0 3.85679 0 4.20649V15.1399C0.00178172 15.171 0.0032106 15.204 0.00470589 15.2384C0.0183116 15.552 0.0374162 15.9922 0.377868 16.3838C0.833333 16.751 1.32479 16.751 1.66667 16.751H3.50337L8.49662 21V16.751H12.3109C12.1092 16.1507 12 15.508 12 14.8397C12 11.526 14.6863 8.83972 18 8.83972C18.7013 8.83972 19.3744 8.96003 20 9.18113V4.20649C20 3.85679 19.883 3.56828 19.6491 3.34097Z"/>
</mask>
<path fill-rule="evenodd" clip-rule="evenodd" d="M19.6491 3.34097C19.4152 3.11366 19.1183 3 18.7584 3H1.24157C0.917679 3 0.62978 3.11366 0.377868 3.34097C0.125956 3.56828 0 3.85679 0 4.20649V15.1399C0.00178172 15.171 0.0032106 15.204 0.00470589 15.2384C0.0183116 15.552 0.0374162 15.9922 0.377868 16.3838C0.833333 16.751 1.32479 16.751 1.66667 16.751H3.50337L8.49662 21V16.751H12.3109C12.1092 16.1507 12 15.508 12 14.8397C12 11.526 14.6863 8.83972 18 8.83972C18.7013 8.83972 19.3744 8.96003 20 9.18113V4.20649C20 3.85679 19.883 3.56828 19.6491 3.34097Z" fill="#6B7889"/>
<path d="M19.6491 3.34097L18.1865 4.84612L18.1865 4.84613L19.6491 3.34097ZM0.377868 3.34097L1.78388 4.89915L1.78388 4.89915L0.377868 3.34097ZM0 15.1399H-2.09877V15.1998L-2.09534 15.2597L0 15.1399ZM0.00470589 15.2384L-2.09209 15.3294L0.00470589 15.2384ZM0.377868 16.3838L-1.20601 17.7608L-1.08407 17.9011L-0.939385 18.0178L0.377868 16.3838ZM3.50337 16.751L4.86351 15.1527L4.27548 14.6523H3.50337V16.751ZM8.49662 21L7.13649 22.5984L10.5954 25.5417V21H8.49662ZM8.49662 16.751V14.6523H6.39786V16.751H8.49662ZM12.3109 16.751V18.8498H15.2296L14.3004 16.0829L12.3109 16.751ZM20 9.18113L19.3006 11.1599L22.0988 12.1489V9.18113H20ZM18.7584 5.09877C18.7155 5.09877 18.6212 5.09145 18.5007 5.0453C18.3763 4.99769 18.2682 4.92555 18.1865 4.84612L21.1118 1.83581C20.444 1.18691 19.6028 0.901235 18.7584 0.901235V5.09877ZM1.24157 5.09877H18.7584V0.901235H1.24157V5.09877ZM1.78388 4.89915C1.74128 4.93759 1.66457 4.9935 1.55339 5.03739C1.44064 5.0819 1.33101 5.09877 1.24157 5.09877V0.901235C0.371771 0.901235 -0.410734 1.22566 -1.02815 1.78278L1.78388 4.89915ZM2.09877 4.20649C2.09877 4.28847 2.08278 4.41899 2.01792 4.56756C1.95239 4.71767 1.86203 4.82863 1.78388 4.89915L-1.02815 1.78278C-1.73623 2.42171 -2.09877 3.28347 -2.09877 4.20649H2.09877ZM2.09877 15.1399V4.20649H-2.09877V15.1399H2.09877ZM2.1015 15.1474C2.10014 15.1161 2.0981 15.0683 2.09534 15.0201L-2.09534 15.2597C-2.09454 15.2738 -2.09372 15.2918 -2.09209 15.3294L2.1015 15.1474ZM1.96175 15.0068C2.00008 15.0509 2.03395 15.1023 2.06052 15.1562C2.0864 15.2087 2.09972 15.2522 2.10607 15.2779C2.11202 15.3019 2.11155 15.3093 2.10951 15.2886C2.10695 15.2627 2.10514 15.2314 2.1015 15.1474L-2.09209 15.3294C-2.07889 15.6335 -2.07142 16.7654 -1.20601 17.7608L1.96175 15.0068ZM1.66667 14.6523C1.62199 14.6523 1.59244 14.6522 1.5638 14.6518C1.53683 14.6514 1.51791 14.6507 1.50383 14.6499C1.47547 14.6483 1.47402 14.6466 1.48883 14.6496C1.50525 14.653 1.53832 14.6615 1.58012 14.6802C1.62329 14.6995 1.66297 14.724 1.69512 14.7499L-0.939385 18.0178C0.141767 18.8894 1.32486 18.8498 1.66667 18.8498V14.6523ZM3.50337 14.6523H1.66667V18.8498H3.50337V14.6523ZM9.85676 19.4016L4.86351 15.1527L2.14324 18.3494L7.13649 22.5984L9.85676 19.4016ZM6.39786 16.751V21H10.5954V16.751H6.39786ZM12.3109 14.6523H8.49662V18.8498H12.3109V14.6523ZM14.3004 16.0829C14.1702 15.6951 14.0988 15.2779 14.0988 14.8397H9.90123C9.90123 15.738 10.0483 16.6063 10.3213 17.4192L14.3004 16.0829ZM14.0988 14.8397C14.0988 12.6851 15.8454 10.9385 18 10.9385V6.74096C13.5272 6.74096 9.90123 10.3669 9.90123 14.8397H14.0988ZM18 10.9385C18.4597 10.9385 18.8965 11.0171 19.3006 11.1599L20.6994 7.20234C19.8523 6.90294 18.9428 6.74096 18 6.74096V10.9385ZM17.9012 4.20649V9.18113H22.0988V4.20649H17.9012ZM18.1865 4.84613C18.1049 4.76681 18.0233 4.65467 17.9673 4.51633C17.9124 4.38105 17.9012 4.2687 17.9012 4.20649H22.0988C22.0988 3.33521 21.7838 2.48891 21.1118 1.83581L18.1865 4.84613Z" fill="#6B7889" mask="url(#path-1-inside-1_4071_22100)"/>
<path d="M14 14.9943L18.2326 19L24 13.5955L22.2902 12L18.2207 15.7977L15.6859 13.3989L14 14.9943Z" fill="#6B7889"/>
</svg>
