<svg width="25" height="25" viewBox="0 0 25 25" fill="none" xmlns="http://www.w3.org/2000/svg">
<path d="M18.686 7.23547H19.9985V13.9689C19.9985 14.7163 19.8322 15.3383 19.4995 15.8351C19.1668 16.3318 18.7248 16.7055 18.1733 16.9562C17.6265 17.2023 17.0317 17.3253 16.3892 17.3253C15.7147 17.3253 15.104 17.2023 14.5571 16.9562C14.0148 16.7055 13.5841 16.3318 13.2651 15.8351C12.9507 15.3383 12.7935 14.7163 12.7935 13.9689V7.23547H14.0991V13.9689C14.0991 14.4884 14.1948 14.9168 14.3862 15.254C14.5776 15.5913 14.8442 15.8419 15.186 16.006C15.5324 16.17 15.9334 16.2521 16.3892 16.2521C16.8494 16.2521 17.2505 16.17 17.5923 16.006C17.9386 15.8419 18.2075 15.5913 18.3989 15.254C18.5903 14.9168 18.686 14.4884 18.686 13.9689V7.23547Z" fill="#6B7889"/>
<path d="M4.36475 7.23547H7.65967C8.40706 7.23547 9.03825 7.34941 9.55322 7.57727C10.0728 7.80514 10.467 8.14237 10.7358 8.58899C11.0093 9.03105 11.146 9.57564 11.146 10.2228C11.146 10.6785 11.0526 11.0955 10.8657 11.4738C10.6834 11.8475 10.4191 12.1665 10.0728 12.4308C9.73096 12.6906 9.3208 12.8842 8.84229 13.0118L8.47314 13.1554H5.37646L5.36279 12.0822H7.70068C8.17464 12.0822 8.56885 12.0001 8.8833 11.8361C9.19775 11.6674 9.43473 11.4419 9.59424 11.1593C9.75374 10.8767 9.8335 10.5646 9.8335 10.2228C9.8335 9.83997 9.7583 9.505 9.60791 9.2179C9.45752 8.93079 9.22054 8.70976 8.89697 8.55481C8.57796 8.3953 8.16553 8.31555 7.65967 8.31555H5.68408V17.1886H4.36475V7.23547ZM10.1821 17.1886L7.76221 12.6769L9.13623 12.67L11.5903 17.1066V17.1886H10.1821Z" fill="#6B7889"/>
</svg>
