<svg width="24" height="24" viewBox="0 0 24 24" fill="none" xmlns="http://www.w3.org/2000/svg">
<path d="M13.9423 9.74627V8.43077C14.4859 8.17827 15.0548 7.98886 15.649 7.86252C16.2433 7.73619 16.8603 7.67302 17.5 7.67302C17.9013 7.67302 18.2911 7.70161 18.6693 7.75877C19.0474 7.81577 19.4269 7.89111 19.8078 7.98477V9.23852C19.4334 9.10769 19.0613 9.01278 18.6913 8.95378C18.3214 8.89478 17.9243 8.86527 17.5 8.86527C16.8603 8.86527 16.2408 8.94127 15.6413 9.09327C15.0419 9.24527 14.4756 9.46294 13.9423 9.74627ZM13.9423 15.227V13.8923C14.4731 13.6398 15.0404 13.4504 15.6443 13.324C16.2481 13.1979 16.8667 13.1348 17.5 13.1348C17.9013 13.1348 18.2911 13.1633 18.6693 13.2203C19.0474 13.2773 19.4269 13.3526 19.8078 13.4463V14.7C19.4334 14.5692 19.0613 14.4743 18.6913 14.4153C18.3214 14.3564 17.9243 14.327 17.5 14.327C16.8603 14.327 16.2408 14.4036 15.6413 14.5568C15.0419 14.7099 14.4756 14.9334 13.9423 15.227ZM13.9423 12.4963V11.1615C14.4859 10.909 15.0548 10.7196 15.649 10.5933C16.2433 10.4669 16.8603 10.4038 17.5 10.4038C17.9013 10.4038 18.2911 10.4324 18.6693 10.4895C19.0474 10.5465 19.4269 10.6219 19.8078 10.7155V11.9693C19.4334 11.8384 19.0613 11.7435 18.6913 11.6845C18.3214 11.6257 17.9243 11.5963 17.5 11.5963C16.8603 11.5963 16.2408 11.6754 15.6413 11.8338C15.0419 11.9921 14.4756 12.2129 13.9423 12.4963ZM6.5 16.0193C7.32817 16.0193 8.13392 16.1132 8.91725 16.301C9.70058 16.4889 10.4782 16.7834 11.25 17.1848V7.35378C10.5475 6.89611 9.78725 6.55286 8.96925 6.32402C8.15125 6.09519 7.32817 5.98077 6.5 5.98077C5.9 5.98077 5.33942 6.02786 4.81825 6.12202C4.29708 6.21636 3.7615 6.37052 3.2115 6.58452C3.13467 6.61019 3.08017 6.64711 3.048 6.69527C3.016 6.74327 3 6.79611 3 6.85378V16.3115C3 16.4014 3.03208 16.4671 3.09625 16.5088C3.16025 16.5504 3.23075 16.5552 3.30775 16.523C3.78208 16.3615 4.28267 16.2372 4.8095 16.15C5.3365 16.0629 5.9 16.0193 6.5 16.0193ZM12.75 17.1848C13.5218 16.7834 14.2994 16.4889 15.0828 16.301C15.8661 16.1132 16.6718 16.0193 17.5 16.0193C18.1 16.0193 18.6635 16.0629 19.1905 16.15C19.7173 16.2372 20.2179 16.3615 20.6923 16.523C20.7693 16.5552 20.8398 16.5504 20.9038 16.5088C20.9679 16.4671 21 16.4014 21 16.3115V6.85378C21 6.79611 20.984 6.74486 20.952 6.70002C20.9198 6.65519 20.8653 6.61669 20.7885 6.58452C20.2385 6.37052 19.7029 6.21636 19.1818 6.12202C18.6606 6.02786 18.1 5.98077 17.5 5.98077C16.6718 5.98077 15.8487 6.09519 15.0307 6.32402C14.2127 6.55286 13.4525 6.89611 12.75 7.35378V17.1848ZM12 19.3845C11.1937 18.7897 10.3238 18.3301 9.3905 18.0058C8.45717 17.6814 7.49367 17.5193 6.5 17.5193C5.88983 17.5193 5.2905 17.5869 4.702 17.722C4.1135 17.8574 3.54617 18.0564 3 18.3193C2.64367 18.4833 2.30458 18.4573 1.98275 18.2413C1.66092 18.0253 1.5 17.7192 1.5 17.323V6.46552C1.5 6.25002 1.5555 6.04777 1.6665 5.85877C1.77733 5.66961 1.93725 5.53336 2.14625 5.45002C2.82308 5.12052 3.5285 4.87661 4.2625 4.71827C4.9965 4.55994 5.74233 4.48077 6.5 4.48077C7.473 4.48077 8.42367 4.61377 9.352 4.87977C10.2802 5.14594 11.1628 5.53861 12 6.05777C12.8372 5.53861 13.7198 5.14594 14.648 4.87977C15.5763 4.61377 16.527 4.48077 17.5 4.48077C18.2577 4.48077 19.0035 4.55994 19.7375 4.71827C20.4715 4.87661 21.1769 5.12052 21.8538 5.45002C22.0628 5.53336 22.2227 5.66961 22.3335 5.85877C22.4445 6.04777 22.5 6.25002 22.5 6.46552V17.323C22.5 17.7192 22.3327 18.0221 21.998 18.2318C21.6633 18.4413 21.3114 18.464 20.9423 18.3C20.4026 18.0435 19.8433 17.8493 19.2645 17.7173C18.6857 17.5853 18.0975 17.5193 17.5 17.5193C16.5063 17.5193 15.5428 17.6814 14.6095 18.0058C13.6762 18.3301 12.8063 18.7897 12 19.3845Z" fill="#6B7889"/>
</svg>
