<svg width="24" height="24" viewBox="0 0 24 24" fill="none" xmlns="http://www.w3.org/2000/svg">
<path d="M4.5 20.5V17.125L17.6943 3.94625C17.8494 3.79108 18.0199 3.67792 18.2057 3.60675C18.3917 3.53558 18.5777 3.5 18.7635 3.5C18.9597 3.5 19.1497 3.53558 19.3337 3.60675C19.5176 3.67792 19.6788 3.79108 19.8173 3.94625L21.0538 5.18275C21.2089 5.32125 21.3221 5.48242 21.3932 5.66625C21.4644 5.85025 21.5 6.04033 21.5 6.2365C21.5 6.42233 21.4644 6.60825 21.3932 6.79425C21.3221 6.98008 21.2089 7.15058 21.0538 7.30575L7.875 20.5H4.5ZM6 19H7.2365L17.427 8.825L16.8135 8.1865L16.175 7.573L6 17.7635V19ZM16.8135 8.1865L16.175 7.573L17.427 8.825L16.8135 8.1865ZM14.1348 20.5C15.3039 20.5 16.3878 20.2141 17.3865 19.6423C18.3852 19.0704 18.8845 18.273 18.8845 17.25C18.8845 16.6628 18.7086 16.1493 18.3568 15.7095C18.0048 15.2698 17.5108 14.8981 16.875 14.5942L15.7557 15.7135C16.2672 15.9058 16.6666 16.1324 16.9538 16.3932C17.2411 16.6541 17.3848 16.9397 17.3848 17.25C17.3848 17.723 17.0598 18.1329 16.4098 18.4798C15.7598 18.8266 15.0014 19 14.1348 19C13.9219 19 13.7437 19.0718 13.6 19.2155C13.4565 19.359 13.3848 19.5372 13.3848 19.75C13.3848 19.9628 13.4565 20.141 13.6 20.2845C13.7437 20.4282 13.9219 20.5 14.1348 20.5ZM5.09425 13.4365L6.20975 12.3115C5.81858 12.1462 5.51917 11.975 5.3115 11.798C5.10383 11.6212 5 11.4385 5 11.25C5 10.9987 5.16767 10.7506 5.503 10.5057C5.83817 10.2609 6.50508 9.92375 7.50375 9.49425C8.89358 8.89942 9.82375 8.36125 10.2942 7.87975C10.7647 7.39842 11 6.85517 11 6.25C11 5.4295 10.6542 4.76608 9.9625 4.25975C9.27083 3.75325 8.36667 3.5 7.25 3.5C6.56417 3.5 5.93342 3.62375 5.35775 3.87125C4.78208 4.11858 4.35192 4.42117 4.06725 4.779C3.92892 4.94433 3.87158 5.12667 3.89525 5.326C3.91892 5.52533 4.0135 5.68908 4.179 5.81725C4.34433 5.94942 4.52508 6.00358 4.72125 5.97975C4.91742 5.95608 5.08467 5.875 5.223 5.7365C5.47567 5.484 5.76608 5.29808 6.09425 5.17875C6.42242 5.05958 6.80767 5 7.25 5C7.98467 5 8.54333 5.124 8.926 5.372C9.30867 5.62017 9.5 5.91283 9.5 6.25C9.5 6.541 9.33492 6.80483 9.00475 7.0415C8.67475 7.278 7.97508 7.63792 6.90575 8.12125C5.61725 8.68525 4.7275 9.19033 4.2365 9.6365C3.7455 10.0827 3.5 10.6205 3.5 11.25C3.5 11.7192 3.64008 12.1317 3.92025 12.4875C4.20042 12.8433 4.59175 13.1597 5.09425 13.4365Z" fill="#6B7889"/>
</svg>
