<svg width="24" height="24" viewBox="0 0 24 24" fill="none" xmlns="http://www.w3.org/2000/svg">
<path d="M11.9061 11.4768C14.2478 11.4768 16.1445 9.58011 16.1445 7.2384C16.1445 4.89668 14.2478 3 11.9061 3C9.56441 3 7.66772 4.89668 7.66772 7.2384C7.66772 9.58011 9.56441 11.4768 11.9061 11.4768Z" fill="#6B7889"/>
<path d="M15.2068 3.09521C16.4065 4.13847 17.1566 5.55404 17.1566 7.22431C17.0846 8.88526 16.5213 9.99111 15.2903 11.2952C16.9223 11.0186 18.8219 9.48083 18.8219 7.22431C18.8219 4.96778 16.8388 3.37175 15.2068 3.09521Z" fill="#6B7889"/>
<path d="M18 14C18.9287 14.5399 19.9831 14.7634 20.8048 15.989C21.0737 16.39 21.1838 16.8729 21.2022 17.3554C21.2612 18.8987 21.1637 20 21.1637 20H22.9915C22.9915 20 23.0269 18.6948 22.9534 17.3767C22.9257 16.8783 22.82 16.3745 22.519 15.9762C21.4148 14.5147 19.1337 14 18 14Z" fill="#6B7889"/>
<path fill-rule="evenodd" clip-rule="evenodd" d="M9.13759 20C9.60223 19.0421 9.86494 17.9527 9.86494 16.7973C9.86494 15.5324 9.55004 14.3466 9 13.3258C9.91947 13.1139 10.7945 13 11.4965 13C14.3334 13 19.9965 14.8609 19.9965 17.5209V20H9.13759Z" fill="#6B7889"/>
<rect width="0.999999" height="5.99999" transform="matrix(-2.01259e-05 1 -1 2.00822e-05 8 16.5001)" fill="#6B7889"/>
<rect width="0.999999" height="5.99999" transform="matrix(1 -2.00822e-05 -1.99995e-05 1 4.5 14)" fill="#6B7889"/>
</svg>
