<svg width="14" height="14" viewBox="0 0 14 14" fill="none" xmlns="http://www.w3.org/2000/svg">
<path d="M0.777778 12H13.2222C13.65 12 14 11.625 14 11.1667C14 10.7083 13.65 10.3333 13.2222 10.3333H0.777778C0.35 10.3333 0 10.7083 0 11.1667C0 11.625 0.35 12 0.777778 12ZM0.777778 7.83333H13.2222C13.65 7.83333 14 7.45833 14 7C14 6.54167 13.65 6.16667 13.2222 6.16667H0.777778C0.35 6.16667 0 6.54167 0 7C0 7.45833 0.35 7.83333 0.777778 7.83333ZM0 2.83333C0 3.29167 0.35 3.66667 0.777778 3.66667H13.2222C13.65 3.66667 14 3.29167 14 2.83333C14 2.375 13.65 2 13.2222 2H0.777778C0.35 2 0 2.375 0 2.83333Z" fill="#6B7889"/>
</svg>
