<svg width="24" height="24" viewBox="0 0 24 24" fill="none" xmlns="http://www.w3.org/2000/svg">
<g id="menu_book_black_24dp 1" clip-path="url(#clip0_4075_22908)">
<g id="Vector">
<path d="M3.6264 23L2 21.3736L5.6869 17.6809H2.82188V15.6957H9.30435V22.1781H7.32488V19.3131L3.6264 23Z" fill="#687583"/>
<path fill-rule="evenodd" clip-rule="evenodd" d="M21.1739 2.45652C20.1604 2.13696 19.0465 2 17.9783 2C16.1978 2 14.2804 2.36522 12.9565 3.36957C11.6326 2.36522 9.71522 2 7.93478 2C6.15435 2 4.23696 2.36522 2.91304 3.36957V13.8696H11.1304V16.606C11.8029 16.8207 12.4271 17.1201 12.9565 17.5217C14.1891 16.7457 16.4261 16.1522 17.9783 16.1522C19.4848 16.1522 21.037 16.4261 22.3152 17.1109C22.4065 17.1565 22.4522 17.1565 22.5435 17.1565C22.7717 17.1565 23 16.9283 23 16.7V3.36957C22.4522 2.9587 21.8587 2.68478 21.1739 2.45652ZM21.1739 14.7826C20.1696 14.463 19.0739 14.3261 17.9783 14.3261C16.4261 14.3261 14.1891 14.9196 12.9565 15.6957V5.19565C14.1891 4.41957 16.4261 3.82609 17.9783 3.82609C19.0739 3.82609 20.1696 3.96304 21.1739 4.28261V14.7826Z" fill="#6B7889"/>
</g>
</g>
<defs>
<clipPath id="clip0_4075_22908">
<rect width="24" height="24" fill="white"/>
</clipPath>
</defs>
</svg>
