<svg width="16" height="16" viewBox="0 0 16 16" fill="none" xmlns="http://www.w3.org/2000/svg">
<path d="M9.40738 13.0674H8.66664H7.9259H9.40738ZM12.3703 10.8452V7.14145C12.3703 4.86738 11.1555 2.96367 9.03701 2.45997V1.95626C9.03701 1.34145 8.54071 0.845154 7.9259 0.845154C7.31108 0.845154 6.81478 1.34145 6.81478 1.95626V2.45997C4.68886 2.96367 3.48145 4.85997 3.48145 7.14145V10.8452L1.99997 12.3266V13.0674H7.9259H13.8518V12.3266L12.3703 10.8452Z" fill="white"/>
<path d="M8.66667 13.5118C8.66667 13.5118 8.66667 14.8451 7.33333 14.8451C6 14.8451 6 13.5118 6 13.5118H8.66667Z" fill="white"/>
</svg>
