<svg width="128" height="128" viewBox="0 0 128 128" fill="none" xmlns="http://www.w3.org/2000/svg">
<rect width="128" height="128" rx="64" fill="#00A0F2"/>
<path d="M64 98.5947C59.2144 98.5947 54.7171 97.6866 50.5081 95.8704C46.2991 94.0542 42.6378 91.5893 39.5243 88.4758C36.4108 85.3623 33.9459 81.701 32.1297 77.492C30.3135 73.283 29.4054 68.7857 29.4054 64.0001C29.4054 59.2145 30.3135 54.7172 32.1297 50.5082C33.9459 46.2992 36.4108 42.6379 39.5243 39.5244C42.6378 36.4109 46.2991 33.9461 50.5081 32.1298C54.7171 30.3136 59.2144 29.4055 64 29.4055C68.7856 29.4055 73.2829 30.3136 77.4919 32.1298C81.7009 33.9461 85.3622 36.4109 88.4757 39.5244C91.5892 42.6379 94.054 46.2992 95.8703 50.5082C97.6865 54.7172 98.5946 59.2145 98.5946 64.0001V68.5839C98.5946 71.8127 97.4558 74.537 95.1784 76.7569C92.9009 78.9767 90.1189 80.0866 86.8324 80.0866C84.7567 80.0866 82.7964 79.5821 80.9513 78.5731C79.1063 77.5641 77.6937 76.137 76.7135 74.292C75.2144 76.2524 73.3405 77.7082 71.0919 78.6596C68.8432 79.6109 66.4793 80.0866 64 80.0866C59.5027 80.0866 55.6829 78.5298 52.5405 75.4163C49.3982 72.3028 47.827 68.4974 47.827 64.0001C47.827 59.5028 49.3982 55.6686 52.5405 52.4974C55.6829 49.3262 59.5027 47.7407 64 47.7407C68.4973 47.7407 72.3171 49.3262 75.4594 52.4974C78.6018 55.6686 80.173 59.5028 80.173 64.0001V68.5839C80.173 70.3713 80.8216 71.8704 82.1189 73.0812C83.4162 74.292 84.9874 74.8974 86.8324 74.8974C88.6198 74.8974 90.1621 74.292 91.4594 73.0812C92.7567 71.8704 93.4054 70.3713 93.4054 68.5839V64.0001C93.4054 55.8127 90.5513 48.865 84.8432 43.1569C79.1351 37.4488 72.1874 34.5947 64 34.5947C55.8126 34.5947 48.8649 37.4488 43.1567 43.1569C37.4486 48.865 34.5946 55.8127 34.5946 64.0001C34.5946 72.1875 37.4486 79.1352 43.1567 84.8434C48.8649 90.5515 55.8126 93.4055 64 93.4055H82.5081V98.5947H64ZM64 74.8974C67.0558 74.8974 69.6504 73.8452 71.7838 71.7407C73.9171 69.6361 74.9838 67.056 74.9838 64.0001C74.9838 60.8866 73.9171 58.2632 71.7838 56.1298C69.6504 53.9965 67.0558 52.9298 64 52.9298C60.9441 52.9298 58.3495 53.9965 56.2162 56.1298C54.0829 58.2632 53.0162 60.8866 53.0162 64.0001C53.0162 67.056 54.0829 69.6361 56.2162 71.7407C58.3495 73.8452 60.9441 74.8974 64 74.8974Z" fill="white"/>
</svg>
