<svg width="25" height="25" viewBox="0 0 25 25" fill="none" xmlns="http://www.w3.org/2000/svg">
<path d="M6.70947 21.7706V17.7399C5.75947 16.8732 5.02197 15.88 4.49697 14.7601C3.97197 13.6401 3.70947 12.4746 3.70947 11.2636C3.70947 8.90446 4.53589 6.89921 6.18872 5.24788C7.84139 3.59638 9.84831 2.77063 12.2095 2.77063C14.1518 2.77063 15.8886 3.35113 17.42 4.51213C18.9515 5.67296 19.9461 7.17905 20.4037 9.03038L21.572 13.6449C21.647 13.93 21.5941 14.189 21.4132 14.4216C21.2326 14.6543 20.9916 14.7706 20.6902 14.7706H18.7095V17.9629C18.7095 18.46 18.5325 18.8856 18.1785 19.2396C17.8245 19.5936 17.3989 19.7706 16.9017 19.7706H14.7095V21.7706H13.2095V18.2706H16.9017C16.9916 18.2706 17.0653 18.2418 17.123 18.1841C17.1806 18.1265 17.2095 18.0527 17.2095 17.9629V13.2706H19.9095L18.9595 9.39563C18.5761 7.87263 17.7563 6.63771 16.5 5.69088C15.2435 4.74405 13.8133 4.27063 12.2095 4.27063C10.2761 4.27063 8.62614 4.94655 7.25947 6.29838C5.89281 7.65021 5.20947 9.29413 5.20947 11.2301C5.20947 12.2286 5.41364 13.1771 5.82197 14.0756C6.23031 14.9741 6.80947 15.7728 7.55947 16.4716L8.20947 17.0706V21.7706H6.70947ZM12.113 16.1744C12.3581 16.1744 12.5637 16.0915 12.7297 15.9259C12.8957 15.76 12.9787 15.5545 12.9787 15.3094C12.9787 15.0644 12.8958 14.8589 12.73 14.6929C12.5641 14.5267 12.3587 14.4436 12.1137 14.4436C11.8686 14.4436 11.663 14.5265 11.497 14.6924C11.331 14.8582 11.248 15.0637 11.248 15.3089C11.248 15.5539 11.3309 15.7594 11.4967 15.9254C11.6624 16.0914 11.8678 16.1744 12.113 16.1744ZM11.5267 13.2054H12.7345C12.7345 12.8464 12.7935 12.5345 12.9115 12.2696C13.0293 12.005 13.2549 11.6925 13.5882 11.3321C13.8819 11.0053 14.164 10.6742 14.4345 10.3389C14.705 10.0037 14.8402 9.58355 14.8402 9.07838C14.8402 8.41605 14.5886 7.85621 14.0855 7.39888C13.5823 6.94155 12.9499 6.71288 12.1882 6.71288C11.5794 6.71288 11.025 6.88213 10.525 7.22063C10.025 7.55913 9.66339 8.00463 9.44022 8.55713L10.5267 9.02638C10.6691 8.67255 10.8925 8.38796 11.197 8.17263C11.5015 7.95713 11.8319 7.84938 12.1882 7.84938C12.5934 7.84938 12.9328 7.96371 13.2065 8.19238C13.4803 8.42105 13.6172 8.71638 13.6172 9.07838C13.6172 9.44121 13.5082 9.75855 13.2902 10.0304C13.0722 10.302 12.8248 10.5795 12.548 10.8629C12.2146 11.2065 11.9611 11.5534 11.7875 11.9034C11.6136 12.2534 11.5267 12.6874 11.5267 13.2054Z" fill="#6B7889"/>
</svg>
