<svg width="24" height="24" viewBox="0 0 24 24" fill="none" xmlns="http://www.w3.org/2000/svg">
<g clip-path="url(#clip0_5853_976)">
<path fill-rule="evenodd" clip-rule="evenodd" d="M4.35294 2.5H19.6471C20.9412 2.5 22 3.53846 22 4.80769V14.5809C21.1539 12.0524 18.7663 10.2302 15.9531 10.2302C12.4323 10.2302 9.57812 13.0844 9.57812 16.6052C9.57812 16.9089 9.59936 17.2076 9.64043 17.5H4.35294C3.05882 17.5 2 16.4615 2 15.1923V4.80769C2 3.53846 3.05882 2.5 4.35294 2.5ZM12 10.5769L19.6471 6.73462V4.80769L12 8.65L4.35294 4.80769V6.73462L12 10.5769Z" fill="#6B7889"/>
<path d="M15.9531 21.6052C14.5698 21.6052 13.3906 21.1177 12.4156 20.1427C11.4406 19.1677 10.9531 17.9885 10.9531 16.6052C10.9531 15.2218 11.4406 14.0427 12.4156 13.0677C13.3906 12.0927 14.5698 11.6052 15.9531 11.6052C17.3365 11.6052 18.5156 12.0927 19.4906 13.0677C20.4656 14.0427 20.9531 15.2218 20.9531 16.6052C20.9531 17.9885 20.4656 19.1677 19.4906 20.1427C18.5156 21.1177 17.3365 21.6052 15.9531 21.6052ZM16.4531 16.4052V13.6052H15.4531V16.8052L17.6031 18.9552L18.3031 18.2552L16.4531 16.4052Z" fill="#6B7889"/>
</g>
<defs>
<clipPath id="clip0_5853_976">
<rect width="24" height="24" fill="white"/>
</clipPath>
</defs>
</svg>
