<svg width="24" height="24" viewBox="0 0 24 24" fill="none" xmlns="http://www.w3.org/2000/svg">
<path d="M17.183 22.1106C15.8043 22.1106 14.6383 21.634 13.6852 20.6808C12.732 19.7276 12.2554 18.5617 12.2554 17.183C12.2554 15.8042 12.732 14.6383 13.6852 13.6851C14.6383 12.7319 15.8043 12.2553 17.183 12.2553C18.5618 12.2553 19.7277 12.7319 20.6809 13.6851C21.6341 14.6383 22.1107 15.8042 22.1107 17.183C22.1107 18.5617 21.6341 19.7276 20.6809 20.6808C19.7277 21.634 18.5618 22.1106 17.183 22.1106ZM19.0724 19.7617L19.7618 19.0723L17.6171 17.1319V13.9659H16.5447V17.4383L19.0724 19.7617Z" fill="#6B7889"/>
<path d="M1.53186 15.7844V19.5344H5.28186L16.3419 8.47442L12.5919 4.72442L1.53186 15.7844ZM19.2419 5.57442C19.6319 5.18442 19.6319 4.55442 19.2419 4.16442L16.9019 1.82442C16.5119 1.43442 15.8819 1.43442 15.4919 1.82442L13.6619 3.65442L17.4119 7.40442L19.2419 5.57442V5.57442Z" fill="#6B7889"/>
</svg>
