<svg width="25" height="25" viewBox="0 0 25 25" fill="none" xmlns="http://www.w3.org/2000/svg">
<path d="M22.6227 14.9633L22.6227 16.8414L1.79622 16.8414L1.79622 14.9633L22.6227 14.9633Z" fill="#6B7889"/>
<path d="M22.6226 16.8413L20.7444 16.8413L20.7444 7.71846L22.6226 7.71846L22.6226 16.8413Z" fill="#6B7889"/>
<path d="M3.67432 16.8414L1.7962 16.8414L1.7962 7.71858L3.67432 7.71858L3.67432 16.8414Z" fill="#6B7889"/>
<path d="M8.41125 11.2767L6.53314 11.2767L6.53314 7.71844L8.41125 7.71844L8.41125 11.2767Z" fill="#6B7889"/>
<path d="M13.1486 11.2767L11.2704 11.2767L11.2704 7.71844L13.1486 7.71844L13.1486 11.2767Z" fill="#6B7889"/>
<path d="M17.8856 11.2767L16.0075 11.2767L16.0075 7.71844L17.8856 7.71844L17.8856 11.2767Z" fill="#6B7889"/>
<path d="M22.6227 7.69482L22.6227 9.57294L1.79622 9.57294L1.79622 7.69482L22.6227 7.69482Z" fill="#6B7889"/>
</svg>
