<svg width="25" height="25" viewBox="0 0 25 25" fill="none" xmlns="http://www.w3.org/2000/svg">
<g clip-path="url(#clip0_5825_1091)">
<path d="M19.2095 9.1886L20.4595 6.4386L23.2095 5.1886L20.4595 3.9386L19.2095 1.1886L17.9595 3.9386L15.2095 5.1886L17.9595 6.4386L19.2095 9.1886ZM11.7095 9.6886L9.20947 4.1886L6.70947 9.6886L1.20947 12.1886L6.70947 14.6886L9.20947 20.1886L11.7095 14.6886L17.2095 12.1886L11.7095 9.6886ZM19.2095 15.1886L17.9595 17.9386L15.2095 19.1886L17.9595 20.4386L19.2095 23.1886L20.4595 20.4386L23.2095 19.1886L20.4595 17.9386L19.2095 15.1886Z" fill="#6B7889"/>
</g>
<defs>
<clipPath id="clip0_5825_1091">
<rect width="24" height="24" fill="white" transform="translate(0.209473 0.188599)"/>
</clipPath>
</defs>
</svg>
