<svg width="16" height="16" viewBox="0 0 16 16" fill="none" xmlns="http://www.w3.org/2000/svg">
<path d="M8 9.33337C9.10667 9.33337 9.99333 8.44004 9.99333 7.33337L10 3.33337C10 2.22671 9.10667 1.33337 8 1.33337C6.89333 1.33337 6 2.22671 6 3.33337V7.33337C6 8.44004 6.89333 9.33337 8 9.33337ZM11.5333 7.33337C11.5333 9.33337 9.84 10.7334 8 10.7334C6.16 10.7334 4.46667 9.33337 4.46667 7.33337H3.33333C3.33333 9.60671 5.14667 11.4867 7.33333 11.8134V14H8.66667V11.8134C10.8533 11.4934 12.6667 9.61337 12.6667 7.33337H11.5333Z" fill="#6B7889"/>
</svg>
