<svg width="25" height="25" viewBox="0 0 25 25" fill="none" xmlns="http://www.w3.org/2000/svg">
<path d="M5.26722 20.6886C4.76206 20.6886 4.33447 20.5136 3.98447 20.1636C3.63447 19.8136 3.45947 19.386 3.45947 18.8808V5.49635C3.45947 4.99118 3.63447 4.5636 3.98447 4.2136C4.33447 3.8636 4.76206 3.6886 5.26722 3.6886H14.421V5.1886H5.26722C5.19022 5.1886 5.11972 5.22068 5.05572 5.28485C4.99156 5.34885 4.95947 5.41935 4.95947 5.49635V18.8808C4.95947 18.9578 4.99156 19.0283 5.05572 19.0923C5.11972 19.1565 5.19022 19.1886 5.26722 19.1886H18.6517C18.7287 19.1886 18.7992 19.1565 18.8632 19.0923C18.9274 19.0283 18.9595 18.9578 18.9595 18.8808V9.7271H20.4595V18.8808C20.4595 19.386 20.2845 19.8136 19.9345 20.1636C19.5845 20.5136 19.1569 20.6886 18.6517 20.6886H5.26722ZM8.20947 16.9386V15.4386H15.7095V16.9386H8.20947ZM8.20947 13.9386V12.4386H15.7095V13.9386H8.20947ZM8.20947 10.9386V9.4386H15.7095V10.9386H8.20947ZM17.4595 8.6886V6.6886H15.4595V5.1886H17.4595V3.1886H18.9595V5.1886H20.9595V6.6886H18.9595V8.6886H17.4595Z" fill="#6B7889"/>
</svg>
